<mxfile host="app.diagrams.net" modified="2022-11-08T02:14:41.802Z" agent="5.0 (Macintosh; Intel Mac OS X 10_15_7) AppleWebKit/537.36 (KHTML, like Gecko) Chrome/106.0.0.0 Safari/537.36" etag="aAN6b0b0AIs3w0yzVgge" version="20.4.0" type="github">
  <diagram id="dV589SYp812eKlmV9Laz" name="第 1 页">
    <mxGraphModel dx="1426" dy="794" grid="1" gridSize="10" guides="1" tooltips="1" connect="1" arrows="1" fold="1" page="1" pageScale="1" pageWidth="827" pageHeight="1169" math="0" shadow="0">
      <root>
        <mxCell id="0" />
        <mxCell id="1" parent="0" />
        <mxCell id="9Rvzb1KdChaz28uZKzUF-3" value="&lt;b&gt;binlog&lt;/b&gt;" style="edgeStyle=orthogonalEdgeStyle;rounded=0;orthogonalLoop=1;jettySize=auto;html=1;" edge="1" parent="1" source="9Rvzb1KdChaz28uZKzUF-1" target="9Rvzb1KdChaz28uZKzUF-2">
          <mxGeometry relative="1" as="geometry" />
        </mxCell>
        <mxCell id="9Rvzb1KdChaz28uZKzUF-1" value="业务库" style="rounded=1;whiteSpace=wrap;html=1;fillColor=#60a917;fontColor=#ffffff;strokeColor=#2D7600;" vertex="1" parent="1">
          <mxGeometry x="110" y="200" width="120" height="60" as="geometry" />
        </mxCell>
        <mxCell id="9Rvzb1KdChaz28uZKzUF-5" value="&lt;b&gt;flink&lt;/b&gt;" style="edgeStyle=orthogonalEdgeStyle;rounded=0;orthogonalLoop=1;jettySize=auto;html=1;" edge="1" parent="1" source="9Rvzb1KdChaz28uZKzUF-2" target="9Rvzb1KdChaz28uZKzUF-4">
          <mxGeometry relative="1" as="geometry" />
        </mxCell>
        <mxCell id="9Rvzb1KdChaz28uZKzUF-2" value="kafka" style="rounded=1;whiteSpace=wrap;html=1;fillColor=#0050ef;fontColor=#ffffff;strokeColor=#001DBC;" vertex="1" parent="1">
          <mxGeometry x="340" y="200" width="120" height="60" as="geometry" />
        </mxCell>
        <mxCell id="9Rvzb1KdChaz28uZKzUF-4" value="sensors" style="rounded=1;whiteSpace=wrap;html=1;fillColor=#1ba1e2;fontColor=#ffffff;strokeColor=#006EAF;" vertex="1" parent="1">
          <mxGeometry x="570" y="200" width="120" height="60" as="geometry" />
        </mxCell>
      </root>
    </mxGraphModel>
  </diagram>
</mxfile>
